<svg version="1.1" xmlns="http://www.w3.org/2000/svg" viewBox="0 0 1441.7288850180216 1062.5506235264988" width="1441.7288850180216" height="1062.5506235264988">
  <!-- svg-source:excalidraw -->
  
  <defs>
    <style class="style-fonts">
      
    </style>
    
  </defs>
  <rect x="0" y="0" width="1441.7288850180216" height="1062.5506235264988" fill="#000"></rect><g stroke-linecap="round" transform="translate(400.09859147771294 10) rotate(0 303.1528913137572 111.6879125680905)"><path d="M32 0 C215.88 -0.91, 401.15 -0.64, 574.31 0 M32 0 C198.82 -1.91, 366.23 -2.11, 574.31 0 M574.31 0 C594.45 -0.53, 605.96 12.15, 606.31 32 M574.31 0 C593.83 1.31, 605.97 10.39, 606.31 32 M606.31 32 C607.31 81.69, 604.28 132.79, 606.31 191.38 M606.31 32 C605.6 85.66, 605.02 138.93, 606.31 191.38 M606.31 191.38 C605.9 210.93, 593.85 221.58, 574.31 223.38 M606.31 191.38 C606.79 212.71, 595.36 222.17, 574.31 223.38 M574.31 223.38 C426.43 221.99, 279.04 222.38, 32 223.38 M574.31 223.38 C360.4 225.67, 146.97 225.64, 32 223.38 M32 223.38 C10.87 222.9, 1.08 214.26, 0 191.38 M32 223.38 C12.51 222.03, -0.6 213.31, 0 191.38 M0 191.38 C-0.67 129.28, -0.43 71.6, 0 32 M0 191.38 C-1.02 143.58, -0.89 96.91, 0 32 M0 32 C-0.01 9.09, 9.99 0.08, 32 0 M0 32 C2.13 10.23, 9.04 2.11, 32 0" stroke="#fff" stroke-width="2" fill="none"></path></g><g transform="translate(482.17433435397015 80.28791256809063) rotate(0 221.0771484375 41.39999999999998)"><text x="221.0771484375" y="30.420703125" font-family="Helvetica, Segoe UI Emoji" font-size="36px" fill="#fff" text-anchor="middle" style="white-space: pre;" direction="ltr" dominant-baseline="alphabetic">Language of choice</text><text x="221.0771484375" y="71.820703125" font-family="Helvetica, Segoe UI Emoji" font-size="36px" fill="#fff" text-anchor="middle" style="white-space: pre;" direction="ltr" dominant-baseline="alphabetic">(JavaScript, Rust, C++, etc)</text></g><g stroke-linecap="round" transform="translate(400.09859147771294 333.375825136181) rotate(0 303.1528913137572 111.6879125680905)"><path d="M32 0 C197.6 -0.45, 362.58 0.18, 574.31 0 M32 0 C204.79 -0.82, 377.54 -1.28, 574.31 0 M574.31 0 C595.36 0.04, 607.46 11.92, 606.31 32 M574.31 0 C597.07 1.35, 607.35 10.06, 606.31 32 M606.31 32 C605.22 68.73, 606.07 106.91, 606.31 191.38 M606.31 32 C607.51 94.7, 606.61 157.03, 606.31 191.38 M606.31 191.38 C607.32 214.65, 593.87 224, 574.31 223.38 M606.31 191.38 C607.12 213.64, 595.86 223.73, 574.31 223.38 M574.31 223.38 C419.15 224.36, 263.26 224, 32 223.38 M574.31 223.38 C465.38 223.65, 355.9 223.01, 32 223.38 M32 223.38 C12.05 225.09, 0.35 214.37, 0 191.38 M32 223.38 C8.61 223.99, 0.84 210.53, 0 191.38 M0 191.38 C0.87 138.2, -0.71 88.39, 0 32 M0 191.38 C-0.04 133.76, 1.3 74.28, 0 32 M0 32 C-1.15 9.48, 10.79 0.44, 32 0 M0 32 C-2.28 11.8, 12.39 -0.01, 32 0" stroke="#fff" stroke-width="2" fill="none"></path></g><g transform="translate(627.5600765414702 424.36373770427144) rotate(0 75.69140625 20.700000000000045)"><text x="75.69140625" y="30.420703125" font-family="Helvetica, Segoe UI Emoji" font-size="36px" fill="#fff" text-anchor="middle" style="white-space: pre;" direction="ltr" dominant-baseline="alphabetic">WebGPU</text></g><g stroke-linecap="round"><g transform="translate(703.312113369733 238.375825136181) rotate(0 0 45)"><path d="M0 0 C-1.54 33.32, 0.04 65.31, 0 90 M0 0 C0.94 33.79, -0.22 68.38, 0 90" stroke="#fff" stroke-width="2" fill="none"></path></g><g transform="translate(703.312113369733 238.375825136181) rotate(0 0 45)"><path d="M-8.47 66.48 C-6.91 75.76, -2.27 83.77, 0 90 M-8.47 66.48 C-4.62 74.97, -2.55 84.26, 0 90" stroke="#fff" stroke-width="2" fill="none"></path></g><g transform="translate(703.312113369733 238.375825136181) rotate(0 0 45)"><path d="M8.64 66.54 C4.02 75.9, 2.49 83.89, 0 90 M8.64 66.54 C5.97 74.98, 1.53 84.24, 0 90" stroke="#fff" stroke-width="2" fill="none"></path></g></g><mask></mask><g stroke-linecap="round" transform="translate(1106.4043741052274 656.751650272362) rotate(0 162.66225545639716 59.92820219134762)"><path d="M29.96 0 C85.03 1.44, 138.56 1.77, 295.36 0 M29.96 0 C128.34 0.45, 228.02 1.41, 295.36 0 M295.36 0 C316.22 -0.42, 326.39 9.31, 325.32 29.96 M295.36 0 C314.05 -0.82, 325.01 11.28, 325.32 29.96 M325.32 29.96 C327.3 47.29, 323.91 65.99, 325.32 89.89 M325.32 29.96 C325.96 48.66, 325.64 65.6, 325.32 89.89 M325.32 89.89 C327.01 107.96, 316.58 121.6, 295.36 119.86 M325.32 89.89 C326.84 110.53, 314.51 120.69, 295.36 119.86 M295.36 119.86 C230.3 117.77, 168.37 118.57, 29.96 119.86 M295.36 119.86 C211.69 119.82, 129.26 118.97, 29.96 119.86 M29.96 119.86 C8.42 121.34, 1.02 111.26, 0 89.89 M29.96 119.86 C7.96 118.71, -0.81 107.73, 0 89.89 M0 89.89 C-0.86 69.45, 0.6 49.09, 0 29.96 M0 89.89 C0.88 76.56, 0.18 61.38, 0 29.96 M0 29.96 C-0.66 8.64, 10.1 1.93, 29.96 0 M0 29.96 C0.93 10.07, 10.35 2.08, 29.96 0" stroke="#fff" stroke-width="2" fill="none"></path></g><g transform="translate(1225.0500279991245 695.9798524637097) rotate(0 44.0166015625 20.700000000000045)"><text x="44.0166015625" y="30.420703125" font-family="Helvetica, Segoe UI Emoji" font-size="36px" fill="#fff" text-anchor="middle" style="white-space: pre;" direction="ltr" dominant-baseline="alphabetic">Metal</text></g><g stroke-linecap="round"><g transform="translate(703.312113369733 561.751650272362) rotate(0 282.89352432149144 45)"><path d="M0 0 C1.11 4.82, 1.5 11.14, 0 19 M0 0 C-1.01 7.24, 0.15 15.42, 0 19 M0 19 C-0.42 30.73, 4.65 33.88, 16 35 M0 19 C-0.82 29.35, 6.63 34.73, 16 35 M16 35 C209.85 32.58, 404.26 33.3, 549.79 35 M16 35 C152.62 33.29, 288.54 33.4, 549.79 35 M549.79 35 C558.54 36.25, 567.54 41.65, 565.79 51 M549.79 35 C561.12 34.17, 566.62 38.94, 565.79 51 M565.79 51 C565.41 60.12, 566.41 69.55, 565.79 90 M565.79 51 C566.11 64.45, 565.04 76.52, 565.79 90" stroke="#fff" stroke-width="2" fill="none"></path></g><g transform="translate(703.312113369733 561.751650272362) rotate(0 282.89352432149144 45)"><path d="M556.7 66.71 C560.2 72.58, 562.94 80.09, 565.79 90 M556.7 66.71 C559.21 75.72, 564.02 85.63, 565.79 90" stroke="#fff" stroke-width="2" fill="none"></path></g><g transform="translate(703.312113369733 561.751650272362) rotate(0 282.89352432149144 45)"><path d="M573.8 66.32 C572.91 72.37, 571.26 79.98, 565.79 90 M573.8 66.32 C569.56 75.32, 567.61 85.38, 565.79 90" stroke="#fff" stroke-width="2" fill="none"></path></g></g><mask></mask><g stroke-linecap="round" transform="translate(539.2469464526212 656.751650272362) rotate(0 165.35601388304917 60.920639553009096)"><path d="M30.46 0 C114.47 -0.64, 198.86 0.31, 300.25 0 M30.46 0 C109.24 -1.21, 188.6 -0.82, 300.25 0 M300.25 0 C321.05 -1.27, 331.82 8.68, 330.71 30.46 M300.25 0 C321.47 -1.79, 329.22 10.2, 330.71 30.46 M330.71 30.46 C329.16 51.37, 328.27 68.27, 330.71 91.38 M330.71 30.46 C331.24 54.93, 329.56 77.26, 330.71 91.38 M330.71 91.38 C330.73 110.79, 319.4 123.2, 300.25 121.84 M330.71 91.38 C328.83 112.23, 322.41 122.58, 300.25 121.84 M300.25 121.84 C200.38 122.85, 97.35 121.65, 30.46 121.84 M300.25 121.84 C193.56 124.52, 87.95 123.35, 30.46 121.84 M30.46 121.84 C11.59 120.13, 1.54 111.78, 0 91.38 M30.46 121.84 C12.26 120.07, 1.21 113.33, 0 91.38 M0 91.38 C-0.41 70.4, -1.16 47.4, 0 30.46 M0 91.38 C-1.15 78.32, -0.57 64.52, 0 30.46 M0 30.46 C-1.05 9.41, 9.91 1.62, 30.46 0 M0 30.46 C-2.21 8.17, 8.04 0.31, 30.46 0" stroke="#fff" stroke-width="2" fill="none"></path></g><g transform="translate(644.0990540856703 696.972289825371) rotate(0 60.50390625 20.700000000000045)"><text x="60.50390625" y="30.420703125" font-family="Helvetica, Segoe UI Emoji" font-size="36px" fill="#fff" text-anchor="middle" style="white-space: pre;" direction="ltr" dominant-baseline="alphabetic">DirectX</text></g><g stroke-linecap="round"><g transform="translate(703.312113369733 561.751650272362) rotate(0 0.6619590843570222 45)"><path d="M0 0 C0.46 11.54, 1.66 19.11, 0 34.34 M0 0 C0.74 14, 1.25 26.31, 0 34.34 M0 34.34 C-1.27 35.88, -1.25 35.8, 0.66 35 M0 34.34 C-1.79 33.29, 0.27 35.46, 0.66 35 M0.66 35 C0.66 35, 0.66 35, 0.66 35 M0.66 35 C0.66 35, 0.66 35, 0.66 35 M0.66 35 C0.21 33.84, 2.68 33.58, 1.32 35.66 M0.66 35 C1.64 36.85, 2.07 36.92, 1.32 35.66 M1.32 35.66 C1.49 47.32, -0.05 63.7, 1.32 90 M1.32 35.66 C2.65 52.63, 1.16 68.53, 1.32 90" stroke="#fff" stroke-width="2" fill="none"></path></g><g transform="translate(703.312113369733 561.751650272362) rotate(0 0.6619590843570222 45)"><path d="M-6.99 66.42 C-4.24 74.92, -0.7 79.47, 1.32 90 M-6.99 66.42 C-3.18 76.33, 0.49 84.56, 1.32 90" stroke="#fff" stroke-width="2" fill="none"></path></g><g transform="translate(703.312113369733 561.751650272362) rotate(0 0.6619590843570222 45)"><path d="M10.11 66.59 C8.05 75.1, 6.8 79.6, 1.32 90 M10.11 66.59 C7.43 76.45, 4.6 84.62, 1.32 90" stroke="#fff" stroke-width="2" fill="none"></path></g></g><mask></mask><g stroke-linecap="round" transform="translate(10 660.751650272362) rotate(0 153.54489602691046 56.56917487546286)"><path d="M28.28 0 C126.67 -1.09, 225.94 -0.86, 278.81 0 M28.28 0 C119.58 0.43, 211.03 0.4, 278.81 0 M278.81 0 C297.01 -1.68, 306.84 8.17, 307.09 28.28 M278.81 0 C297.29 -0.31, 306.19 7.74, 307.09 28.28 M307.09 28.28 C305.14 43.51, 305.27 54.54, 307.09 84.85 M307.09 28.28 C307.7 49.26, 308.29 69.43, 307.09 84.85 M307.09 84.85 C308.55 104.8, 295.82 114.85, 278.81 113.14 M307.09 84.85 C308.68 105.49, 299.44 113.72, 278.81 113.14 M278.81 113.14 C216.57 115.85, 156.1 116.03, 28.28 113.14 M278.81 113.14 C204.18 113.06, 128.57 112.64, 28.28 113.14 M28.28 113.14 C8.76 111.61, -0.9 104.74, 0 84.85 M28.28 113.14 C11.63 114.97, -0.34 101.99, 0 84.85 M0 84.85 C-1.58 63.59, -0.38 40.04, 0 28.28 M0 84.85 C-0.89 67.85, -0.38 53.24, 0 28.28 M0 28.28 C1.27 11.31, 10.39 1.24, 28.28 0 M0 28.28 C-1.37 11.11, 11.11 1.34, 28.28 0" stroke="#fff" stroke-width="2" fill="none"></path></g><g transform="translate(109.17575540191046 696.6208251478249) rotate(0 54.369140625 20.700000000000045)"><text x="54.369140625" y="30.420703125" font-family="Helvetica, Segoe UI Emoji" font-size="36px" fill="#fff" text-anchor="middle" style="white-space: pre;" direction="ltr" dominant-baseline="alphabetic">Vulkan</text></g><g stroke-linecap="round"><g transform="translate(703.312113369733 561.751650272362) rotate(0 -269.86825418180854 47)"><path d="M0 0 C0.48 6.36, 0.77 12.67, 0 21 M0 0 C-0.25 5.57, -0.28 10.89, 0 21 M0 21 C-1.68 31.42, -6.59 36.68, -16 37 M0 21 C-0.31 30.77, -7.02 35.49, -16 37 M-16 37 C-144.35 34.66, -274.37 35.81, -523.74 37 M-16 37 C-187.4 38.2, -359.12 38.09, -523.74 37 M-523.74 37 C-533.31 35.16, -538.02 43.71, -539.74 53 M-523.74 37 C-532.62 38.77, -539.16 41.01, -539.74 53 M-539.74 53 C-538.5 65.12, -538.28 80, -539.74 94 M-539.74 53 C-539.82 67.84, -540.34 80.99, -539.74 94" stroke="#fff" stroke-width="2" fill="none"></path></g><g transform="translate(703.312113369733 561.751650272362) rotate(0 -269.86825418180854 47)"><path d="M-548.85 70.72 C-545.88 77.7, -543.13 84.64, -539.74 94 M-548.85 70.72 C-546.67 76.91, -544.27 82.84, -539.74 94" stroke="#fff" stroke-width="2" fill="none"></path></g><g transform="translate(703.312113369733 561.751650272362) rotate(0 -269.86825418180854 47)"><path d="M-531.75 70.31 C-533.41 77.39, -535.29 84.43, -539.74 94 M-531.75 70.31 C-534.14 76.59, -536.31 82.63, -539.74 94" stroke="#fff" stroke-width="2" fill="none"></path></g></g><mask></mask><g stroke-linecap="round" transform="translate(408.70262012661715 878.5929293783802) rotate(0 295.8777592148764 86.97884707405933)"><path d="M32 0 C154.84 1.59, 277.52 2.62, 559.76 0 M32 0 C169.82 -0.04, 307.34 -0.11, 559.76 0 M559.76 0 C579.89 -0.8, 590.81 9.21, 591.76 32 M559.76 0 C579.01 2.29, 594.01 9.66, 591.76 32 M591.76 32 C593.3 62.98, 592.6 89.9, 591.76 141.96 M591.76 32 C590.76 72.41, 590.36 111.69, 591.76 141.96 M591.76 141.96 C592.38 161.35, 580.91 175.18, 559.76 173.96 M591.76 141.96 C593.36 163.56, 580.2 172.89, 559.76 173.96 M559.76 173.96 C354.08 174.62, 147.88 174.09, 32 173.96 M559.76 173.96 C405.98 172.39, 251.7 172.73, 32 173.96 M32 173.96 C11.07 172.83, -0.09 161.57, 0 141.96 M32 173.96 C12.85 175.68, 0.24 163.39, 0 141.96 M0 141.96 C0.43 105.06, 1.26 69.75, 0 32 M0 141.96 C1.94 112.9, 1.87 81.71, 0 32 M0 32 C0.77 8.71, 11.22 -0.22, 32 0 M0 32 C-0.57 11.34, 12.09 -1.44, 32 0" stroke="#fff" stroke-width="2" fill="none"></path></g><g transform="translate(665.5745199664934 944.8717764524395) rotate(0 39.005859375 20.700000000000045)"><text x="39.005859375" y="30.420703125" font-family="Helvetica, Segoe UI Emoji" font-size="36px" fill="#fff" text-anchor="middle" style="white-space: pre;" direction="ltr" dominant-baseline="alphabetic">GPU</text></g><g stroke-linecap="round"><g transform="translate(704.636031538447 783.5929293783802) rotate(0 0.0017616774447333228 45)"><path d="M0 0 C-1.31 8.36, 1.26 17.83, 0 35 M0 0 C-0.83 11.67, -1 24.17, 0 35 M0 35 C-0.8 34.05, -1.46 33.19, 0 35 M0 35 C2.29 37.25, -1.01 34.17, 0 35 M0 35 C0 35, 0 35, 0 35 M0 35 C0 35, 0 35, 0 35 M0 35 C-1.93 34.82, 1.22 36.4, 0 35 M0 35 C0.27 34.11, -1.06 37.08, 0 35 M0 35 C0.33 56.22, -1 77.13, 0 90 M0 35 C-0.91 48.47, -0.06 60.85, 0 90" stroke="#fff" stroke-width="2" fill="none"></path></g><g transform="translate(704.636031538447 783.5929293783802) rotate(0 0.0017616774447333228 45)"><path d="M-8.76 66.59 C-7.63 71.88, -2.73 78.27, 0 90 M-8.76 66.59 C-6.47 74.15, -3.54 82.56, 0 90" stroke="#fff" stroke-width="2" fill="none"></path></g><g transform="translate(704.636031538447 783.5929293783802) rotate(0 0.0017616774447333228 45)"><path d="M8.34 66.43 C4.92 71.75, 5.28 78.17, 0 90 M8.34 66.43 C4.58 74.06, 1.46 82.51, 0 90" stroke="#fff" stroke-width="2" fill="none"></path></g></g><mask></mask><g stroke-linecap="round"><g transform="translate(163.44489602691056 778.8900000232877) rotate(0 270.5177416572915 47.35146467754623)"><path d="M0 0 C0.04 6.95, -0.35 16.48, 0 21.35 M0 0 C0.28 4.45, 0.13 8.99, 0 21.35 M0 21.35 C1.9 31.23, 4.98 37.92, 16 37.35 M0 21.35 C-0.12 32.69, 4.18 37.51, 16 37.35 M16 37.35 C175.79 36.41, 335.69 36.82, 525.04 37.35 M16 37.35 C176.82 37.27, 336.87 37.12, 525.04 37.35 M525.04 37.35 C536.44 36.78, 539.87 41.19, 541.04 53.35 M525.04 37.35 C535.04 39.47, 541.94 40.86, 541.04 53.35 M541.04 53.35 C540.84 64.58, 540.62 75.34, 541.04 94.7 M541.04 53.35 C540.35 67.85, 540.92 84.85, 541.04 94.7" stroke="#fff" stroke-width="2" fill="none"></path></g><g transform="translate(163.44489602691056 778.8900000232877) rotate(0 270.5177416572915 47.35146467754623)"><path d="M532.08 71.36 C535.64 79.08, 538.77 89.39, 541.04 94.7 M532.08 71.36 C534.2 76.19, 535.91 81.14, 541.04 94.7" stroke="#fff" stroke-width="2" fill="none"></path></g><g transform="translate(163.44489602691056 778.8900000232877) rotate(0 270.5177416572915 47.35146467754623)"><path d="M549.18 71.07 C546 78.93, 542.4 89.36, 541.04 94.7 M549.18 71.07 C547.77 76.02, 545.93 81.03, 541.04 94.7" stroke="#fff" stroke-width="2" fill="none"></path></g></g><mask></mask><g stroke-linecap="round"><g transform="translate(1268.9666295616244 781.6080546550572) rotate(0 -282.2431251100655 45.99243736166147)"><path d="M0 0 C-0.07 9.77, 0.24 17.33, 0 19.99 M0 0 C-0.69 4.54, 0.12 10.68, 0 19.99 M0 19.99 C0.48 29.74, -6.87 37.94, -16 35.99 M0 19.99 C-0.97 30.43, -6.2 34.08, -16 35.99 M-16 35.99 C-201.64 36.09, -388.81 36.6, -548.49 35.99 M-16 35.99 C-170.3 35.46, -324.1 35.35, -548.49 35.99 M-548.49 35.99 C-560.16 34.63, -563.39 41.08, -564.49 51.99 M-548.49 35.99 C-557.28 37.98, -566.54 42.28, -564.49 51.99 M-564.49 51.99 C-565.65 61.17, -564.72 72.93, -564.49 91.98 M-564.49 51.99 C-563.39 66.81, -564.34 80.48, -564.49 91.98" stroke="#fff" stroke-width="2" fill="none"></path></g><g transform="translate(1268.9666295616244 781.6080546550572) rotate(0 -282.2431251100655 45.99243736166147)"><path d="M-572.45 68.29 C-569.37 79.46, -565.92 88.49, -564.49 91.98 M-572.45 68.29 C-570.96 73.84, -568 80.97, -564.49 91.98" stroke="#fff" stroke-width="2" fill="none"></path></g><g transform="translate(1268.9666295616244 781.6080546550572) rotate(0 -282.2431251100655 45.99243736166147)"><path d="M-555.36 68.71 C-559.02 79.84, -562.32 88.69, -564.49 91.98 M-555.36 68.71 C-558.47 74.13, -560.12 81.15, -564.49 91.98" stroke="#fff" stroke-width="2" fill="none"></path></g></g><mask></mask></svg>